<?xml version="1.0" ?><svg contentScriptType="text/ecmascript" contentStyleType="text/css" enable-background="new 0 0 2048 2048" height="2048px" id="Layer_1" preserveAspectRatio="xMidYMid meet" version="1.1" viewBox="0.0 0 1664.0 2048" width="1664.0px" xml:space="preserve" xmlns="http://www.w3.org/2000/svg" xmlns:xlink="http://www.w3.org/1999/xlink" zoomAndPan="magnify"><path d="M876,1593c0-14-1.5-27.5-4.5-40.5s-6.167-25-9.5-36s-9.167-22.5-17.5-34.5s-15.333-22.167-21-30.5S809,1433.333,797,1422  s-21.167-19.833-27.5-25.5s-17-14.167-32-25.5s-25.333-19-31-23s-16.667-11.667-33-23s-26.5-18.333-30.5-21c-11.333-1.333-28-2-50-2  c-36,0-71.333,2.333-106,7s-70.667,13-108,25s-70,27.333-98,46s-51,43.667-69,75s-27,67-27,107c0,45.333,11.833,85.833,35.5,121.5  s54.667,63.667,93,84S392,1803,434,1813s84.333,15,127,15c39.333,0,76.833-4.167,112.5-12.5s69.167-21.333,100.5-39  s56.167-42.167,74.5-73.5S876,1635,876,1593z M756,731c0-40-5.5-82.5-16.5-127.5s-26.667-88.5-47-130.5s-48.333-76.667-84-104  S533,328,489,328c-62,0-110,23-144,69s-51,101-51,165c0,31.333,3.833,64.333,11.5,99c7.667,34.667,19.5,69.333,35.5,104  s34.667,65.833,56,93.5s47.333,50.167,78,67.5s63,26,97,26c64.667,0,111.5-20.167,140.5-60.5S756,797.667,756,731z M625,256h437  l-135,79H792c47.333,30,84,72,110,126s39,110.333,39,169c0,49.333-7.667,93.167-23,131.5s-34,69.167-56,92.5s-44,44.833-66,64.5  s-40.667,40-56,61s-23,43.5-23,67.5c0,17.333,5.5,34.333,16.5,51s25.333,32.667,43,48c17.667,15.333,37.167,31.333,58.5,48  s42.667,35.167,64,55.5s40.833,42.333,58.5,66s32,52,43,85S1017,1469,1017,1507c0,106.667-46.667,200.667-140,282  c-101.333,87.333-241.333,131-420,131c-39.333,0-79.167-3.333-119.5-10s-81-17.833-122-33.5s-77.167-35-108.5-58s-57-52.667-77-89  S0,1652.667,0,1608c0-40.667,12.333-85.667,37-135c21.333-42.667,53.333-79.5,96-110.5s91-54.667,145-71s105.667-28.333,155-36  s99.333-12.167,150-13.5c-42.667-55.333-64-105-64-149c0-8,0.667-15.833,2-23.5s3-14.167,5-19.5s4.667-12.5,8-21.5  s5.667-16.167,7-21.5c-26.667,3.333-50,5-70,5c-99.333,0-184.5-32.667-255.5-98S109,766.667,109,668  c0-93.333,31.667-176.833,95-250.5S345.333,296.667,438,276C500.667,262.667,563,256,625,256z M1664,512v128h-256v256h-128V640h-256  V512h256V256h128v256H1664z"/></svg>