<?xml version="1.0" ?><svg contentScriptType="text/ecmascript" contentStyleType="text/css" enable-background="new 0 0 2048 2048" height="2048px" id="Layer_1" preserveAspectRatio="xMidYMid meet" version="1.1" viewBox="78.0 0 946.0 2048" width="946.0px" xml:space="preserve" xmlns="http://www.w3.org/2000/svg" xmlns:xlink="http://www.w3.org/1999/xlink" zoomAndPan="magnify"><path d="M390,256h219v388h364v241H609v394c0,90.667,4.667,148,14,172c8.667,24.667,26,44.667,52,60c33.333,20.667,72.333,31,117,31  c78,0,155.333-25.333,232-76v242c-68,32-127.333,53.667-178,65c-51.333,12.667-109,19-173,19c-70,0-132-9-186-27  c-52-16.667-98-41.667-138-75c-38.667-34-65-69-79-105c-14.667-36-22-89.667-22-161V885H78V668c60.667-20,112.333-48,155-84  c42.667-36.667,77-80.667,103-132C362,400,380,334.667,390,256z"/></svg>