<svg xmlns="http://www.w3.org/2000/svg" class="svg-icon-store">
    <symbol id="i-facebook" viewBox="0 0 32 32">
       <title>facebook</title> <path d="M19 6h5v-6h-5c-3.86 0-7 3.14-7 7v3h-4v6h4v16h6v-16h5l1-6h-6v-3c0-0.542 0.458-1 1-1z"/> 
    </symbol>
    <symbol id="i-google-plus" viewBox="0 0 1664 2048" preserveAspectRatio="xMidYMid meet" >
      <path d="M876,1593c0-14-1.5-27.5-4.5-40.5s-6.167-25-9.5-36s-9.167-22.5-17.5-34.5s-15.333-22.167-21-30.5S809,1433.333,797,1422  s-21.167-19.833-27.5-25.5s-17-14.167-32-25.5s-25.333-19-31-23s-16.667-11.667-33-23s-26.5-18.333-30.5-21c-11.333-1.333-28-2-50-2  c-36,0-71.333,2.333-106,7s-70.667,13-108,25s-70,27.333-98,46s-51,43.667-69,75s-27,67-27,107c0,45.333,11.833,85.833,35.5,121.5  s54.667,63.667,93,84S392,1803,434,1813s84.333,15,127,15c39.333,0,76.833-4.167,112.5-12.5s69.167-21.333,100.5-39  s56.167-42.167,74.5-73.5S876,1635,876,1593z M756,731c0-40-5.5-82.5-16.5-127.5s-26.667-88.5-47-130.5s-48.333-76.667-84-104  S533,328,489,328c-62,0-110,23-144,69s-51,101-51,165c0,31.333,3.833,64.333,11.5,99c7.667,34.667,19.5,69.333,35.5,104  s34.667,65.833,56,93.5s47.333,50.167,78,67.5s63,26,97,26c64.667,0,111.5-20.167,140.5-60.5S756,797.667,756,731z M625,256h437  l-135,79H792c47.333,30,84,72,110,126s39,110.333,39,169c0,49.333-7.667,93.167-23,131.5s-34,69.167-56,92.5s-44,44.833-66,64.5  s-40.667,40-56,61s-23,43.5-23,67.5c0,17.333,5.5,34.333,16.5,51s25.333,32.667,43,48c17.667,15.333,37.167,31.333,58.5,48  s42.667,35.167,64,55.5s40.833,42.333,58.5,66s32,52,43,85S1017,1469,1017,1507c0,106.667-46.667,200.667-140,282  c-101.333,87.333-241.333,131-420,131c-39.333,0-79.167-3.333-119.5-10s-81-17.833-122-33.5s-77.167-35-108.5-58s-57-52.667-77-89  S0,1652.667,0,1608c0-40.667,12.333-85.667,37-135c21.333-42.667,53.333-79.5,96-110.5s91-54.667,145-71s105.667-28.333,155-36  s99.333-12.167,150-13.5c-42.667-55.333-64-105-64-149c0-8,0.667-15.833,2-23.5s3-14.167,5-19.5s4.667-12.5,8-21.5  s5.667-16.167,7-21.5c-26.667,3.333-50,5-70,5c-99.333,0-184.5-32.667-255.5-98S109,766.667,109,668  c0-93.333,31.667-176.833,95-250.5S345.333,296.667,438,276C500.667,262.667,563,256,625,256z M1664,512v128h-256v256h-128V640h-256  V512h256V256h128v256H1664z"/>
    </symbol>
    <symbol id="i-instagram" viewBox="0 0 32 32">
       <title>instagram</title> <path d="M16 2.881c4.275 0 4.781 0.019 6.462 0.094 1.563 0.069 2.406 0.331 2.969 0.55 0.744 0.288 1.281 0.638 1.837 1.194 0.563 0.563 0.906 1.094 1.2 1.838 0.219 0.563 0.481 1.412 0.55 2.969 0.075 1.688 0.094 2.194 0.094 6.463s-0.019 4.781-0.094 6.463c-0.069 1.563-0.331 2.406-0.55 2.969-0.288 0.744-0.637 1.281-1.194 1.837-0.563 0.563-1.094 0.906-1.837 1.2-0.563 0.219-1.413 0.481-2.969 0.55-1.688 0.075-2.194 0.094-6.463 0.094s-4.781-0.019-6.463-0.094c-1.563-0.069-2.406-0.331-2.969-0.55-0.744-0.288-1.281-0.637-1.838-1.194-0.563-0.563-0.906-1.094-1.2-1.837-0.219-0.563-0.481-1.413-0.55-2.969-0.075-1.688-0.094-2.194-0.094-6.463s0.019-4.781 0.094-6.463c0.069-1.563 0.331-2.406 0.55-2.969 0.288-0.744 0.638-1.281 1.194-1.838 0.563-0.563 1.094-0.906 1.838-1.2 0.563-0.219 1.412-0.481 2.969-0.55 1.681-0.075 2.188-0.094 6.463-0.094zM16 0c-4.344 0-4.887 0.019-6.594 0.094-1.7 0.075-2.869 0.35-3.881 0.744-1.056 0.412-1.95 0.956-2.837 1.85-0.894 0.888-1.438 1.781-1.85 2.831-0.394 1.019-0.669 2.181-0.744 3.881-0.075 1.713-0.094 2.256-0.094 6.6s0.019 4.887 0.094 6.594c0.075 1.7 0.35 2.869 0.744 3.881 0.413 1.056 0.956 1.95 1.85 2.837 0.887 0.887 1.781 1.438 2.831 1.844 1.019 0.394 2.181 0.669 3.881 0.744 1.706 0.075 2.25 0.094 6.594 0.094s4.888-0.019 6.594-0.094c1.7-0.075 2.869-0.35 3.881-0.744 1.050-0.406 1.944-0.956 2.831-1.844s1.438-1.781 1.844-2.831c0.394-1.019 0.669-2.181 0.744-3.881 0.075-1.706 0.094-2.25 0.094-6.594s-0.019-4.887-0.094-6.594c-0.075-1.7-0.35-2.869-0.744-3.881-0.394-1.063-0.938-1.956-1.831-2.844-0.887-0.887-1.781-1.438-2.831-1.844-1.019-0.394-2.181-0.669-3.881-0.744-1.712-0.081-2.256-0.1-6.6-0.1v0z"/> <path d="M16 7.781c-4.537 0-8.219 3.681-8.219 8.219s3.681 8.219 8.219 8.219 8.219-3.681 8.219-8.219c0-4.537-3.681-8.219-8.219-8.219zM16 21.331c-2.944 0-5.331-2.387-5.331-5.331s2.387-5.331 5.331-5.331c2.944 0 5.331 2.387 5.331 5.331s-2.387 5.331-5.331 5.331z"/> <path d="M26.462 7.456c0 1.060-0.859 1.919-1.919 1.919s-1.919-0.859-1.919-1.919c0-1.060 0.859-1.919 1.919-1.919s1.919 0.859 1.919 1.919z"/> 
    </symbol>
    <symbol id="i-linkedin2" viewBox="0 0 32 32">
       <title>linkedin2</title> <path d="M12 12h5.535v2.837h0.079c0.77-1.381 2.655-2.837 5.464-2.837 5.842 0 6.922 3.637 6.922 8.367v9.633h-5.769v-8.54c0-2.037-0.042-4.657-3.001-4.657-3.005 0-3.463 2.218-3.463 4.509v8.688h-5.767v-18z"/> <path d="M2 12h6v18h-6v-18z"/> <path d="M8 7c0 1.657-1.343 3-3 3s-3-1.343-3-3c0-1.657 1.343-3 3-3s3 1.343 3 3z"/> 
    </symbol>
    <symbol id="i-odnoklassniki" viewBox="0 0 20 28">
       <title>odnoklassniki</title> <path d="M10 14.172c-3.906 0-7.094-3.172-7.094-7.078 0-3.922 3.187-7.094 7.094-7.094s7.094 3.172 7.094 7.094c0 3.906-3.187 7.078-7.094 7.078zM10 3.594c-1.922 0-3.484 1.563-3.484 3.5 0 1.922 1.563 3.484 3.484 3.484s3.484-1.563 3.484-3.484c0-1.937-1.563-3.5-3.484-3.5zM18.172 15.031c0.688 1.406-0.094 2.078-1.875 3.234-1.5 0.953-3.563 1.328-4.922 1.469l1.141 1.125 4.172 4.172c0.625 0.641 0.625 1.672 0 2.297l-0.187 0.203c-0.641 0.625-1.672 0.625-2.312 0-1.047-1.062-2.578-2.594-4.172-4.188l-4.172 4.188c-0.641 0.625-1.672 0.625-2.297 0l-0.187-0.203c-0.641-0.625-0.641-1.656 0-2.297 1.062-1.062 2.578-2.594 4.172-4.172l1.125-1.125c-1.344-0.141-3.437-0.5-4.953-1.469-1.781-1.156-2.562-1.828-1.875-3.234 0.406-0.797 1.516-1.469 2.984-0.313 0 0 1.984 1.578 5.187 1.578s5.187-1.578 5.187-1.578c1.469-1.156 2.578-0.484 2.984 0.313z"/> 
    </symbol>
    <symbol id="i-telegram" viewBox="0 0 32 32">
      <g><g><path d="M1.911,16.179c-1.084,0.568-1.039,1.4,0.098,1.852l3.364,1.331c1.137,0.449,2.856,0.204,3.821-0.55    L23.806,7.289c0.961-0.757,1.064-0.645,0.229,0.249L12.483,19.902c-0.837,0.892-0.59,1.984,0.55,2.425l0.394,0.154    c1.14,0.44,3,1.182,4.132,1.642l3.732,1.521c1.133,0.46,2.06,0.842,2.062,0.849c0.001,0.007,0.006,0.028,0.012,0.03    s0.273-0.962,0.594-2.141l5.688-20.908c0.321-1.18-0.302-1.681-1.385-1.113L1.911,16.179z"/></g><g><path d="M11.146,29.864c-0.067,0.199,2.301-3.429,2.301-3.429c0.669-1.022,0.29-2.241-0.842-2.703l-2.582-1.058    c-1.132-0.463-1.674,0.08-1.205,1.212C8.818,23.887,11.214,29.66,11.146,29.864z"/></g></g>
    </symbol>
    <symbol id="i-tumblr" viewBox="78 0 946 2048" preserveAspectRatio="xMidYMid meet" >
      <path d="M390,256h219v388h364v241H609v394c0,90.667,4.667,148,14,172c8.667,24.667,26,44.667,52,60c33.333,20.667,72.333,31,117,31  c78,0,155.333-25.333,232-76v242c-68,32-127.333,53.667-178,65c-51.333,12.667-109,19-173,19c-70,0-132-9-186-27  c-52-16.667-98-41.667-138-75c-38.667-34-65-69-79-105c-14.667-36-22-89.667-22-161V885H78V668c60.667-20,112.333-48,155-84  c42.667-36.667,77-80.667,103-132C362,400,380,334.667,390,256z"/>
    </symbol>
    <symbol id="i-twitter" viewBox="0 0 32 32">
       <title>twitter</title> <path d="M32 7.075c-1.175 0.525-2.444 0.875-3.769 1.031 1.356-0.813 2.394-2.1 2.887-3.631-1.269 0.75-2.675 1.3-4.169 1.594-1.2-1.275-2.906-2.069-4.794-2.069-3.625 0-6.563 2.938-6.563 6.563 0 0.512 0.056 1.012 0.169 1.494-5.456-0.275-10.294-2.888-13.531-6.862-0.563 0.969-0.887 2.1-0.887 3.3 0 2.275 1.156 4.287 2.919 5.463-1.075-0.031-2.087-0.331-2.975-0.819 0 0.025 0 0.056 0 0.081 0 3.181 2.263 5.838 5.269 6.437-0.55 0.15-1.131 0.231-1.731 0.231-0.425 0-0.831-0.044-1.237-0.119 0.838 2.606 3.263 4.506 6.131 4.563-2.25 1.762-5.075 2.813-8.156 2.813-0.531 0-1.050-0.031-1.569-0.094 2.913 1.869 6.362 2.95 10.069 2.95 12.075 0 18.681-10.006 18.681-18.681 0-0.287-0.006-0.569-0.019-0.85 1.281-0.919 2.394-2.075 3.275-3.394z"/> 
    </symbol>
    <symbol id="i-vk" viewBox="0 0 31 28">
       <title>vk</title> <path d="M29.953 8.125c0.234 0.641-0.5 2.141-2.344 4.594-3.031 4.031-3.359 3.656-0.859 5.984 2.406 2.234 2.906 3.313 2.984 3.453 0 0 1 1.75-1.109 1.766l-4 0.063c-0.859 0.172-2-0.609-2-0.609-1.5-1.031-2.906-3.703-4-3.359 0 0-1.125 0.359-1.094 2.766 0.016 0.516-0.234 0.797-0.234 0.797s-0.281 0.297-0.828 0.344h-1.797c-3.953 0.25-7.438-3.391-7.438-3.391s-3.813-3.938-7.156-11.797c-0.219-0.516 0.016-0.766 0.016-0.766s0.234-0.297 0.891-0.297l4.281-0.031c0.406 0.063 0.688 0.281 0.688 0.281s0.25 0.172 0.375 0.5c0.703 1.75 1.609 3.344 1.609 3.344 1.563 3.219 2.625 3.766 3.234 3.437 0 0 0.797-0.484 0.625-4.375-0.063-1.406-0.453-2.047-0.453-2.047-0.359-0.484-1.031-0.625-1.328-0.672-0.234-0.031 0.156-0.594 0.672-0.844 0.766-0.375 2.125-0.391 3.734-0.375 1.266 0.016 1.625 0.094 2.109 0.203 1.484 0.359 0.984 1.734 0.984 5.047 0 1.062-0.203 2.547 0.562 3.031 0.328 0.219 1.141 0.031 3.141-3.375 0 0 0.938-1.625 1.672-3.516 0.125-0.344 0.391-0.484 0.391-0.484s0.25-0.141 0.594-0.094l4.5-0.031c1.359-0.172 1.578 0.453 1.578 0.453z"/> 
    </symbol></svg>